<svg width="24" height="24" viewBox="0 0 24 24" fill="none" xmlns="http://www.w3.org/2000/svg">
<path d="M17.0484 2H7.30959C4.62029 2 2.44019 4.23858 2.44019 7V17C2.44019 19.7614 4.62029 22 7.30959 22H17.0484C19.7377 22 21.9178 19.7614 21.9178 17V7C21.9178 4.23858 19.7377 2 17.0484 2Z" stroke="#EEEEEE" stroke-width="2" stroke-linecap="round" stroke-linejoin="round"/>
<path d="M16.0746 11.3698C16.1948 12.2021 16.0563 13.052 15.679 13.7988C15.3016 14.5456 14.7045 15.1512 13.9726 15.5295C13.2407 15.9077 12.4113 16.0394 11.6023 15.9057C10.7934 15.7721 10.046 15.3799 9.46666 14.785C8.88728 14.1901 8.50534 13.4227 8.37516 12.592C8.24499 11.7614 8.37321 10.9097 8.74159 10.1582C9.10997 9.40667 9.69976 8.79355 10.427 8.40605C11.1543 8.01856 11.9821 7.8764 12.7926 7.99981C13.6194 8.1257 14.3848 8.52128 14.9758 9.12812C15.5668 9.73496 15.952 10.5209 16.0746 11.3698Z" stroke="#EEEEEE" stroke-width="2" stroke-linecap="round" stroke-linejoin="round"/>
<path d="M17.5354 6.5H17.5451" stroke="#EEEEEE" stroke-width="2" stroke-linecap="round" stroke-linejoin="round"/>
</svg>
