<svg width="32" height="24" viewBox="0 0 32 24" fill="none" xmlns="http://www.w3.org/2000/svg">
<path d="M29.8657 2.9998C28.6223 3.67528 27.2455 4.19191 25.7884 4.5298C25.0064 3.83731 23.9671 3.34649 22.811 3.12373C21.6549 2.90096 20.4379 2.957 19.3246 3.28426C18.2112 3.61151 17.2552 4.1942 16.5859 4.95352C15.9166 5.71283 15.5662 6.61214 15.5822 7.5298V8.5298C13.3002 8.57537 11.039 8.18561 9.00004 7.39525C6.96104 6.60488 5.2075 5.43844 3.8956 3.9998C3.8956 3.9998 -1.29843 12.9998 10.3881 16.9998C7.7139 18.3978 4.52818 19.0987 1.29858 18.9998C12.9852 23.9998 27.2687 18.9998 27.2687 7.4998C27.2675 7.22126 27.2328 6.9434 27.1649 6.6698C28.4901 5.6633 29.4253 4.39251 29.8657 2.9998V2.9998Z" stroke="#EEEEEE" stroke-width="2" stroke-linecap="round" stroke-linejoin="round"/>
</svg>
